<svg width="32" height="32" fill="none" xmlns="http://www.w3.org/2000/svg"><circle cx="16" cy="16" r="16" fill="#fff" fill-opacity=".2"/><path d="M16 8c-4.416 0-8 3.584-8 8s3.584 8 8 8h4v-1.6h-4c-3.472 0-6.4-2.928-6.4-6.4 0-3.472 2.928-6.4 6.4-6.4 3.472 0 6.4 2.928 6.4 6.4v1.144c0 .632-.568 1.256-1.2 1.256s-1.2-.624-1.2-1.256V16c0-2.208-1.792-4-4-4s-4 1.792-4 4a4.001 4.001 0 0 0 6.832 2.824c.52.712 1.416 1.176 2.368 1.176 1.576 0 2.8-1.28 2.8-2.856V16c0-4.416-3.584-8-8-8Zm0 10.4a2.397 2.397 0 0 1-2.4-2.4c0-1.328 1.072-2.4 2.4-2.4 1.328 0 2.4 1.072 2.4 2.4 0 1.328-1.072 2.4-2.4 2.4Z" fill="#fff"/></svg>