<svg width="32" height="32" fill="none" xmlns="http://www.w3.org/2000/svg"><circle cx="16" cy="16" r="16" fill="#fff" fill-opacity=".2"/><path fill-rule="evenodd" clip-rule="evenodd" d="M8.332 15.854c4.082-1.772 6.8-2.95 8.164-3.521 3.883-1.622 4.7-1.901 5.224-1.913.117 0 .373.023.548.163.14.117.175.268.198.385.024.117.047.361.024.548-.21 2.216-1.12 7.592-1.586 10.064-.198 1.05-.583 1.4-.956 1.435-.817.07-1.435-.537-2.216-1.05-1.236-.805-1.925-1.306-3.126-2.099-1.387-.91-.49-1.411.304-2.227.21-.21 3.79-3.476 3.86-3.767.011-.035.011-.175-.07-.245-.082-.07-.199-.047-.292-.023-.128.023-2.087 1.329-5.9 3.906-.56.385-1.062.572-1.517.56-.501-.012-1.458-.28-2.18-.513-.875-.28-1.575-.431-1.517-.921.035-.257.385-.514 1.038-.782Z" fill="#fff"/></svg>