<svg width="32" height="32" fill="none" xmlns="http://www.w3.org/2000/svg"><circle cx="16" cy="16" r="16" fill="#fff" fill-opacity=".2"/><path d="M24 11.543c-.588.26-1.22.437-1.885.516a3.291 3.291 0 0 0 1.443-1.816 6.554 6.554 0 0 1-2.084.796 3.284 3.284 0 0 0-5.594 2.995 9.323 9.323 0 0 1-6.766-3.43 3.28 3.28 0 0 0-.056 3.2c.254.476.623.882 1.072 1.182a3.273 3.273 0 0 1-1.487-.41v.042a3.284 3.284 0 0 0 2.634 3.219c-.484.13-.99.15-1.483.056a3.284 3.284 0 0 0 3.067 2.28A6.586 6.586 0 0 1 8 21.532a9.284 9.284 0 0 0 5.031 1.474c6.04 0 9.34-5.002 9.34-9.34 0-.14-.003-.283-.01-.424A6.674 6.674 0 0 0 24 11.545l.001-.002Z" fill="#fff"/></svg>
