<svg width="66" height="22" viewBox="0 0 66 22" fill="none" xmlns="http://www.w3.org/2000/svg">
<path d="M8.8641 1.4C10.6561 1.4 11.9908 1.82 12.8681 2.66C13.7454 3.5 14.1841 4.74133 14.1841 6.384C14.1841 7.26133 13.9694 8.036 13.5401 8.708C13.1108 9.36133 12.4761 9.87467 11.6361 10.248C10.7961 10.6027 9.7601 10.78 8.5281 10.78L8.6401 9.52C9.21877 9.52 9.88143 9.604 10.6281 9.772C11.3748 9.92133 12.0934 10.2013 12.7841 10.612C13.4934 11.004 14.0721 11.564 14.5201 12.292C14.9868 13.0013 15.2201 13.916 15.2201 15.036C15.2201 16.268 15.0148 17.276 14.6041 18.06C14.2121 18.844 13.6894 19.4507 13.0361 19.88C12.3828 20.3093 11.6828 20.608 10.9361 20.776C10.1894 20.9253 9.47076 21 8.7801 21H1.8081C1.32276 21 0.912098 20.8413 0.576098 20.524C0.258764 20.188 0.100098 19.7773 0.100098 19.292V3.108C0.100098 2.62266 0.258764 2.22133 0.576098 1.904C0.912098 1.568 1.32276 1.4 1.8081 1.4H8.8641ZM8.3601 4.704H3.3761L3.7401 4.256V9.324L3.4041 9.072H8.4441C8.98543 9.072 9.47076 8.89466 9.9001 8.54C10.3294 8.18533 10.5441 7.672 10.5441 7C10.5441 6.19733 10.3388 5.61866 9.9281 5.264C9.5361 4.89067 9.01343 4.704 8.3601 4.704ZM8.5841 12.376H3.4881L3.7401 12.152V18.06L3.4601 17.78H8.7801C9.63876 17.78 10.3201 17.556 10.8241 17.108C11.3281 16.6413 11.5801 15.9507 11.5801 15.036C11.5801 14.196 11.4121 13.5893 11.0761 13.216C10.7401 12.8427 10.3388 12.6093 9.8721 12.516C9.40543 12.4227 8.9761 12.376 8.5841 12.376Z" fill="currentColor"/>
<path d="M30.2918 5.74C30.7771 5.74 31.1784 5.89867 31.4958 6.216C31.8131 6.53333 31.9718 6.944 31.9718 7.448V19.292C31.9718 19.7773 31.8131 20.188 31.4958 20.524C31.1784 20.8413 30.7771 21 30.2918 21C29.8064 21 29.4051 20.8413 29.0878 20.524C28.7704 20.188 28.6118 19.7773 28.6118 19.292V17.92L29.2278 18.172C29.2278 18.4147 29.0971 18.7133 28.8358 19.068C28.5744 19.404 28.2198 19.74 27.7718 20.076C27.3238 20.412 26.7918 20.7013 26.1758 20.944C25.5784 21.168 24.9251 21.28 24.2158 21.28C22.9278 21.28 21.7611 20.9533 20.7158 20.3C19.6704 19.628 18.8398 18.7133 18.2238 17.556C17.6264 16.38 17.3278 15.036 17.3278 13.524C17.3278 11.9933 17.6264 10.6493 18.2238 9.492C18.8398 8.316 19.6611 7.40133 20.6878 6.748C21.7144 6.076 22.8531 5.74 24.1038 5.74C24.9064 5.74 25.6438 5.86133 26.3158 6.104C26.9878 6.34666 27.5664 6.65466 28.0518 7.028C28.5558 7.40133 28.9384 7.784 29.1998 8.176C29.4798 8.54933 29.6198 8.86666 29.6198 9.128L28.6118 9.492V7.448C28.6118 6.96266 28.7704 6.56133 29.0878 6.244C29.4051 5.908 29.8064 5.74 30.2918 5.74ZM24.6358 18.2C25.4571 18.2 26.1758 17.9947 26.7918 17.584C27.4078 17.1733 27.8838 16.6133 28.2198 15.904C28.5744 15.1947 28.7518 14.4013 28.7518 13.524C28.7518 12.628 28.5744 11.8253 28.2198 11.116C27.8838 10.4067 27.4078 9.84667 26.7918 9.436C26.1758 9.02533 25.4571 8.82 24.6358 8.82C23.8331 8.82 23.1238 9.02533 22.5078 9.436C21.8918 9.84667 21.4064 10.4067 21.0518 11.116C20.7158 11.8253 20.5478 12.628 20.5478 13.524C20.5478 14.4013 20.7158 15.1947 21.0518 15.904C21.4064 16.6133 21.8918 17.1733 22.5078 17.584C23.1238 17.9947 23.8331 18.2 24.6358 18.2Z" fill="currentColor"/>
<path d="M43.6211 5.74C45.0024 5.74 46.0477 6.02933 46.7571 6.608C47.4851 7.18667 47.9797 7.96133 48.2411 8.932C48.5211 9.884 48.6611 10.948 48.6611 12.124V19.292C48.6611 19.7773 48.5024 20.188 48.1851 20.524C47.8677 20.8413 47.4664 21 46.9811 21C46.4957 21 46.0944 20.8413 45.7771 20.524C45.4597 20.188 45.3011 19.7773 45.3011 19.292V12.124C45.3011 11.508 45.2171 10.9573 45.0491 10.472C44.8997 9.968 44.6197 9.56666 44.2091 9.268C43.7984 8.96933 43.2104 8.82 42.4451 8.82C41.6984 8.82 41.0637 8.96933 40.5411 9.268C40.0371 9.56666 39.6451 9.968 39.3651 10.472C39.1037 10.9573 38.9731 11.508 38.9731 12.124V19.292C38.9731 19.7773 38.8144 20.188 38.4971 20.524C38.1797 20.8413 37.7784 21 37.2931 21C36.8077 21 36.4064 20.8413 36.0891 20.524C35.7717 20.188 35.6131 19.7773 35.6131 19.292V7.728C35.6131 7.24267 35.7717 6.84133 36.0891 6.524C36.4064 6.188 36.8077 6.02 37.2931 6.02C37.7784 6.02 38.1797 6.188 38.4971 6.524C38.8144 6.84133 38.9731 7.24267 38.9731 7.728V8.932L38.5531 8.848C38.7211 8.53066 38.9637 8.19466 39.2811 7.84C39.5984 7.46667 39.9717 7.12133 40.4011 6.804C40.8304 6.48666 41.3157 6.23466 41.8571 6.048C42.3984 5.84267 42.9864 5.74 43.6211 5.74Z" fill="currentColor"/>
<path d="M54.2528 21C53.7674 21 53.3661 20.8413 53.0488 20.524C52.7314 20.188 52.5728 19.7773 52.5728 19.292V1.988C52.5728 1.50266 52.7314 1.10133 53.0488 0.783997C53.3661 0.447998 53.7674 0.279999 54.2528 0.279999C54.7381 0.279999 55.1394 0.447998 55.4568 0.783997C55.7741 1.10133 55.9328 1.50266 55.9328 1.988V19.292C55.9328 19.7773 55.7741 20.188 55.4568 20.524C55.1394 20.8413 54.7381 21 54.2528 21ZM63.1568 6.02C63.5861 6.02 63.9594 6.19733 64.2768 6.552C64.5941 6.90667 64.7528 7.252 64.7528 7.588C64.7528 8.036 64.5288 8.456 64.0808 8.848L55.6528 16.604L55.5128 12.74L61.9248 6.552C62.2794 6.19733 62.6901 6.02 63.1568 6.02ZM63.5768 20.972C63.0914 20.972 62.6808 20.7853 62.3448 20.412L57.1648 14.924L59.7128 12.572L64.7528 18.06C65.1074 18.4333 65.2848 18.8533 65.2848 19.32C65.2848 19.8053 65.0888 20.2067 64.6968 20.524C64.3234 20.8227 63.9501 20.972 63.5768 20.972Z" fill="currentColor"/>
</svg>
