<svg width="47" height="26" viewBox="0 0 47 26" fill="none" xmlns="http://www.w3.org/2000/svg">
<path d="M5.66412 20.28C4.60012 20.28 3.61078 20.0653 2.69612 19.636C1.78145 19.2067 1.03478 18.5907 0.456117 17.788C0.232117 17.452 0.120117 17.1253 0.120117 16.808C0.120117 16.3413 0.297451 15.9493 0.652117 15.632C1.02545 15.3147 1.38945 15.156 1.74412 15.156C2.02412 15.156 2.29478 15.24 2.55612 15.408C2.83612 15.576 3.08812 15.772 3.31212 15.996C3.68545 16.332 4.04945 16.5747 4.40412 16.724C4.77745 16.8547 5.19745 16.92 5.66412 16.92C6.22412 16.92 6.74678 16.78 7.23212 16.5C7.71745 16.22 8.10945 15.8467 8.40812 15.38C8.70679 14.9133 8.85612 14.4093 8.85612 13.868V2.10799C8.85612 1.62266 9.03345 1.22133 9.38812 0.903994C9.74278 0.567994 10.1535 0.399994 10.6201 0.399994C11.1428 0.399994 11.5628 0.567994 11.8801 0.903994C12.1975 1.22133 12.3561 1.62266 12.3561 2.10799V13.868C12.3561 15.0067 12.0575 16.0613 11.4601 17.032C10.8628 18.0027 10.0601 18.7867 9.05212 19.384C8.04412 19.9813 6.91478 20.28 5.66412 20.28Z" fill="currentColor"/>
<path d="M30.6613 12.524C30.6613 14.0547 30.316 15.408 29.6253 16.584C28.9533 17.7413 28.0387 18.6467 26.8813 19.3C25.7427 19.9533 24.464 20.28 23.0453 20.28C21.6267 20.28 20.3387 19.9533 19.1813 19.3C18.0427 18.6467 17.128 17.7413 16.4373 16.584C15.7653 15.408 15.4293 14.0547 15.4293 12.524C15.4293 10.9933 15.7653 9.64933 16.4373 8.49199C17.128 7.31599 18.0427 6.40133 19.1813 5.748C20.3387 5.07599 21.6267 4.74 23.0453 4.74C24.464 4.74 25.7427 5.07599 26.8813 5.748C28.0387 6.40133 28.9533 7.31599 29.6253 8.49199C30.316 9.64933 30.6613 10.9933 30.6613 12.524ZM27.3013 12.524C27.3013 11.572 27.1053 10.7507 26.7133 10.06C26.34 9.35066 25.8267 8.79999 25.1733 8.40799C24.5387 8.01599 23.8293 7.81999 23.0453 7.81999C22.2613 7.81999 21.5427 8.01599 20.8893 8.40799C20.2547 8.79999 19.7413 9.35066 19.3493 10.06C18.976 10.7507 18.7893 11.572 18.7893 12.524C18.7893 13.4573 18.976 14.2787 19.3493 14.988C19.7413 15.6787 20.2547 16.22 20.8893 16.612C21.5427 17.004 22.2613 17.2 23.0453 17.2C23.8293 17.2 24.5387 17.004 25.1733 16.612C25.8267 16.22 26.34 15.6787 26.7133 14.988C27.1053 14.2787 27.3013 13.4573 27.3013 12.524Z" fill="currentColor"/>
<path d="M44.5846 5.01999C45.0699 5.01999 45.4712 5.18799 45.7886 5.52399C46.1059 5.84133 46.2646 6.24266 46.2646 6.72799V18.628C46.2646 20.3453 45.9379 21.708 45.2846 22.716C44.6499 23.7427 43.7912 24.48 42.7086 24.928C41.6259 25.376 40.4126 25.6 39.0686 25.6C38.4712 25.6 37.8366 25.5533 37.1646 25.46C36.4926 25.3667 35.9419 25.2267 35.5126 25.04C34.9526 24.7973 34.5606 24.4893 34.3366 24.116C34.1312 23.7613 34.0939 23.3787 34.2246 22.968C34.3926 22.4267 34.6632 22.0533 35.0366 21.848C35.4099 21.6613 35.8019 21.6427 36.2126 21.792C36.5112 21.8853 36.9032 22.0253 37.3886 22.212C37.8739 22.4173 38.4339 22.52 39.0686 22.52C39.9272 22.52 40.6366 22.3987 41.1966 22.156C41.7752 21.932 42.2046 21.54 42.4846 20.98C42.7832 20.4387 42.9326 19.692 42.9326 18.74V16.864L43.5206 17.536C43.2032 18.152 42.8019 18.6653 42.3166 19.076C41.8499 19.468 41.2899 19.7667 40.6366 19.972C39.9832 20.1773 39.2366 20.28 38.3966 20.28C37.4072 20.28 36.5392 20.056 35.7926 19.608C35.0646 19.1413 34.4952 18.5067 34.0846 17.704C33.6739 16.8827 33.4686 15.9493 33.4686 14.904V6.72799C33.4686 6.24266 33.6272 5.84133 33.9446 5.52399C34.2619 5.18799 34.6632 5.01999 35.1486 5.01999C35.6339 5.01999 36.0352 5.18799 36.3526 5.52399C36.6699 5.84133 36.8286 6.24266 36.8286 6.72799V13.896C36.8286 15.1093 37.0899 15.968 37.6126 16.472C38.1539 16.9573 38.9006 17.2 39.8526 17.2C40.5059 17.2 41.0566 17.0787 41.5046 16.836C41.9526 16.5747 42.2979 16.2013 42.5406 15.716C42.7832 15.212 42.9046 14.6053 42.9046 13.896V6.72799C42.9046 6.24266 43.0632 5.84133 43.3806 5.52399C43.6979 5.18799 44.0992 5.01999 44.5846 5.01999Z" fill="currentColor"/>
</svg>
