<svg width="652" height="238" viewBox="0 0 652 238" fill="none" xmlns="http://www.w3.org/2000/svg">
<path fill-rule="evenodd" clip-rule="evenodd" d="M280.953 27.4185C270.839 41.9045 263.906 59.3422 259.27 71.1474C254.631 82.9608 248.812 95.1947 240.519 104.479C232.212 113.778 221.413 120.127 206.854 120.127C199.493 120.127 192.92 116.64 186.584 111.592C181.83 107.804 177.163 103.097 172.372 98.266C170.788 96.6677 169.189 95.0556 167.57 93.4587C154.491 80.5631 139.955 68.5724 119.362 71.4598C109.069 72.9029 99.0827 78.488 89.2449 87.4675C79.4073 96.4468 69.7466 108.795 60.109 123.709C40.8323 153.541 21.7 193.555 1.45359 237.21C1.33741 237.461 1.04014 237.57 0.78963 237.454C0.539118 237.337 0.430223 237.04 0.546406 236.79C20.7878 193.145 39.9482 153.066 59.2691 123.167C68.9302 108.216 78.6445 95.7891 88.5707 86.7289C98.4966 77.6691 108.662 71.9502 119.223 70.4694C140.337 67.509 155.192 79.8493 168.272 92.7466C169.913 94.3645 171.524 95.9899 173.117 97.596C177.896 102.416 182.503 107.062 187.207 110.81C193.471 115.8 199.824 119.127 206.854 119.127C221.075 119.127 231.617 112.944 239.773 103.812C247.944 94.6655 253.711 82.5684 258.34 70.7818C262.972 58.987 269.942 41.4424 280.133 26.8461C290.318 12.2582 303.802 0.5 321.488 0.5C339.19 0.5 352.308 13.0103 362.059 27.9555C370.192 40.4216 376.053 54.6922 380.314 65.0669C381.165 67.138 381.951 69.0539 382.68 70.7692C387.06 81.0833 395.086 96.9599 406.08 110.249C417.086 123.552 430.983 134.164 447.098 134.164C462.852 134.164 473.223 128.516 483.345 123.004C483.632 122.847 483.919 122.691 484.206 122.535C494.613 116.875 504.912 111.533 520.561 113.072C535.624 114.554 546.009 123.987 556.208 133.252C556.627 133.632 557.045 134.012 557.464 134.391C568.114 144.044 578.775 153.169 594.659 153.169C602.627 153.169 608.207 151.413 612.569 148.802C616.942 146.183 620.121 142.688 623.279 139.135L623.627 138.743C626.657 135.331 629.713 131.889 633.799 129.282C638.059 126.564 643.412 124.765 651 124.765C651.276 124.765 651.5 124.989 651.5 125.265C651.5 125.542 651.276 125.765 651 125.765C643.588 125.765 638.423 127.518 634.337 130.125C630.371 132.656 627.397 136.004 624.345 139.44L624.026 139.799C620.873 143.347 617.604 146.953 613.082 149.66C608.549 152.374 602.787 154.169 594.659 154.169C578.347 154.169 567.423 144.768 556.792 135.132C556.396 134.774 556.001 134.414 555.605 134.055C545.346 124.739 535.19 115.516 520.463 114.068C505.136 112.56 495.069 117.765 484.684 123.414C484.387 123.575 484.09 123.737 483.792 123.899C473.674 129.41 463.109 135.164 447.098 135.164C430.529 135.164 416.377 124.264 405.31 110.886C394.231 97.4949 386.16 81.5221 381.759 71.16C381.024 69.4291 380.232 67.5013 379.378 65.4215C375.115 55.0432 369.297 40.88 361.222 28.502C351.521 13.634 338.664 1.5 321.488 1.5C304.296 1.5 291.073 12.9241 280.953 27.4185Z" fill="url(#paint0_linear_65:1222)" fill-opacity="0.3"/>
<defs>
<linearGradient id="paint0_linear_65:1222" x1="1" y1="237" x2="651" y2="237" gradientUnits="userSpaceOnUse">
<stop stop-color="#5250CD"/>
<stop offset="0.662564" stop-color="#EB8F4D"/>
</linearGradient>
</defs>
</svg>
