<svg width="237" height="651" viewBox="0 0 237 651" fill="none" xmlns="http://www.w3.org/2000/svg">
<path fill-rule="evenodd" clip-rule="evenodd" d="M26.9185 370.547C41.4045 380.661 58.8422 387.594 70.6474 392.23C82.4608 396.869 94.6947 402.688 103.979 410.981C113.278 419.288 119.627 430.087 119.627 444.646C119.627 452.007 116.14 458.58 111.092 464.916C107.304 469.67 102.597 474.337 97.766 479.128C96.1677 480.712 94.5556 482.311 92.9587 483.93C80.0632 497.009 68.0724 511.545 70.9598 532.138C72.4029 542.431 77.988 552.417 86.9675 562.255C95.9468 572.093 108.295 581.753 123.209 591.391C153.041 610.668 193.055 629.8 236.71 650.046C236.961 650.163 237.07 650.46 236.954 650.71C236.837 650.961 236.54 651.07 236.29 650.954C192.645 630.712 152.566 611.552 122.667 592.231C107.716 582.57 95.2891 572.855 86.2289 562.929C77.1691 553.003 71.4502 542.838 69.9694 532.277C67.009 511.163 79.3493 496.308 92.2466 483.228C93.8645 481.587 95.4899 479.976 97.096 478.383C101.916 473.604 106.562 468.997 110.31 464.293C115.3 458.029 118.627 451.676 118.627 444.646C118.627 430.425 112.444 419.883 103.312 411.727C94.1655 403.556 82.0684 397.789 70.2818 393.16C58.487 388.528 40.9424 381.558 26.3461 371.367C11.7582 361.182 3.61684e-06 347.698 3.82774e-06 330.012C4.03884e-06 312.31 12.5103 299.192 27.4555 289.441C39.9216 281.308 54.1922 275.447 64.5669 271.186C66.6381 270.335 68.5539 269.549 70.2692 268.82C80.5833 264.44 96.46 256.414 109.749 245.42C123.052 234.414 133.664 220.517 133.664 204.402C133.664 188.648 128.016 178.277 122.504 168.155C122.347 167.868 122.191 167.581 122.035 167.294C116.375 156.887 111.033 146.588 112.572 130.939C114.054 115.876 123.487 105.491 132.752 95.2915C133.132 94.8729 133.512 94.4545 133.892 94.0362C143.544 83.3863 152.669 72.7249 152.669 56.8415C152.669 48.8727 150.913 43.2927 148.302 38.9314C145.683 34.5578 142.188 31.3793 138.635 28.2213L138.243 27.873C134.831 24.8431 131.389 21.7867 128.782 17.7011C126.064 13.4415 124.266 8.08753 124.266 0.500001C124.266 0.223878 124.489 1.48452e-06 124.766 1.48781e-06C125.042 1.49111e-06 125.266 0.223878 125.266 0.500001C125.266 7.91248 127.018 13.0768 129.625 17.1632C132.156 21.129 135.504 24.1025 138.94 27.1548L139.299 27.4738C142.847 30.6268 146.453 33.8965 149.16 38.4177C151.874 42.9512 153.669 48.7127 153.669 56.8415C153.669 73.1532 144.268 84.0772 134.632 94.7078C134.274 95.1038 133.914 95.4993 133.555 95.8948C124.239 106.154 115.016 116.31 113.568 131.037C112.06 146.364 117.265 156.431 122.914 166.816C123.075 167.113 123.237 167.41 123.399 167.708C128.91 177.826 134.664 188.391 134.664 204.402C134.664 220.971 123.764 235.123 110.386 246.19C96.9949 257.269 81.0221 265.34 70.66 269.741C68.9291 270.476 67.0013 271.268 64.9215 272.122C54.5432 276.385 40.38 282.203 28.002 290.278C13.134 299.979 1 312.836 1 330.012C1 347.204 12.4241 360.427 26.9185 370.547Z" fill="#5250CD" fill-opacity="0.3"/>
</svg>
